{"title":"UNSTOPPABLE.2010.CAM.XVID.LU","uid":5959047,"size":1453621683,"categoryP":"video","categoryS":"movies","magnet":"?xt=urn:btih:a9f7cfa664d3fe747a6d0879fb4c58d2753120e2&amp;dn=UNSTOPPABLE.2010.CAM.XVID.LU&amp;tr=udp%3A%2F%2Ftracker.openbittorrent.com%3A80&amp;tr=udp%3A%2F%2Fopen.demonii.com%3A1337&amp;tr=udp%3A%2F%2Ftracker.coppersurfer.tk%3A6969&amp;tr=udp%3A%2F%2Fexodus.desync.com%3A6969","seeders":0,"leechers":0,"uploader":"hiest","files":-1,"time":1289883917,"description":"Complete name : UNSTOPPABLE.2010.CAM.XVID.LU\nFormat : AVI\nFormat/Info : Audio Video Interleave\nFile size : 1.38 GiB\nDuration : 1h 32mn\nOverall bit rate : 2 136 Kbps\nWriting application : Nandub v1.0rc2\nWriting library : VirtualDub build 32706/release\n\nVideo\nID : 0\nFormat : MPEG-4 Visual\nFormat profile : Advanced Simple@L5\nFormat settings, BVOP : Yes\nFormat settings, QPel : No\nFormat settings, GMC : No warppoints\nFormat settings, Matrix : Default (H.263)\nMuxing mode : Packed bitstream\nCodec ID : XVID\nCodec ID/Hint : XviD\nDuration : 1h 32mn\nBit rate : 1 998 Kbps\nWidth : 640 pixels\nHeight : 272 pixels\nDisplay aspect ratio : 2.567\nFrame rate : 25.000 fps\nColor space : YUV\nChroma subsampling : 4:2:0\nBit depth : 8 bits\nScan type : Progressive\nBits/(Pixel*Frame) : 0.459\nStream size : 1.29 GiB (94%)\nWriting library : XviD 1.2.1 (UTC 2008-12-04)\n\nAudio\nID : 1\nFormat : MPEG Audio\nFormat version : Version 1\nFormat profile : Layer 3\nMode : Joint stereo\nMode extension : MS Stereo\nCodec ID : 55\nCodec ID/Hint : MP3\nDuration : 1h 32mn\nBit rate mode : Constant\nBit rate : 128 Kbps\nChannel(s) : 2 channels\nSampling rate : 44.1 KHz\nStream size : 84.6 MiB (6%)\nAlignment : Split accross interleaves\nInterleave, duration : 40 ms (1.00 video frame)\nInterleave, preload duration : 500 ms\n &lt;a href=&quot;\nhttp://www.imdb.com/title/tt0477080/&quot; rel=&quot;nofollow&quot; target=&quot;_NEW&quot;&gt;\nhttp://www.imdb.com/title/tt0477080/&lt;/a&gt;\n\nREAD NOTES\nUnstoppable Ausser Kontrolle CAM German XViD-AOE ok thanks\n\nok video real nice for a cam and audio is our own english (LU) audio has glicth in it but syncing sucked because the frame rate on movie was strange it was good then slow then good then slow lol\n\nNOW BIG THANKS TO BOOBIES FOR GETING IT OUR THERE FOR ME ( SHOW THEM TO ME )\nWERE GOT LOT MORE FIRST CAMS IN THE WORKS SO YOU BE SEENING LOT MORE OF OUR WORK\nP.S IF YOU DONT LIKE THEN MOVE A LONG. AS WE PAY FOR IT YOU NEVER\n\n\n\n\n\n\n\n================================== &lt;a href=&quot;\nhttp://thepiratebay.se/user/hiest&quot; rel=&quot;nofollow&quot; target=&quot;_NEW&quot;&gt;\nhttp://thepiratebay.se/user/hiest&lt;/a&gt;\n==================================\n\n","torrent":{"xt":"urn:btih:a9f7cfa664d3fe747a6d0879fb4c58d2753120e2","amp;dn":"UNSTOPPABLE.2010.CAM.XVID.LU","amp;tr":["udp%3A%2F%2Ftracker.openbittorrent.com%3A80","udp%3A%2F%2Fopen.demonii.com%3A1337","udp%3A%2F%2Ftracker.coppersurfer.tk%3A6969","udp%3A%2F%2Fexodus.desync.com%3A6969"],"infoHash":"a9f7cfa664d3fe747a6d0879fb4c58d2753120e2","infoHashBuffer":{"type":"Buffer","data":[169,247,207,166,100,211,254,116,122,109,8,121,251,76,88,210,117,49,32,226]},"announce":[],"urlList":[]}}